<svg xmlns="http://www.w3.org/2000/svg" width="300" height="300" viewBox="0 0 300 300">
  <defs>
    <linearGradient id="boxGradient" x1="0%" y1="0%" x2="100%" y2="100%">
      <stop offset="0%" stop-color="#68d391"/>
      <stop offset="50%" stop-color="#48bb78"/>
      <stop offset="100%" stop-color="#2f855a"/>
    </linearGradient>
    <linearGradient id="lidGradient" x1="0%" y1="0%" x2="100%" y2="100%">
      <stop offset="0%" stop-color="#9ae6b4"/>
      <stop offset="100%" stop-color="#68d391"/>
    </linearGradient>
    <linearGradient id="handleGradient" x1="0%" y1="0%" x2="100%" y2="100%">
      <stop offset="0%" stop-color="#4a5568"/>
      <stop offset="100%" stop-color="#2d3748"/>
    </linearGradient>
    <linearGradient id="bgGradient" x1="0%" y1="0%" x2="100%" y2="100%">
      <stop offset="0%" stop-color="#f0fff4"/>
      <stop offset="100%" stop-color="#c6f6d5"/>
    </linearGradient>
  </defs>
  <rect width="300" height="300" fill="url(#bgGradient)"/>
  
  <!-- Shadow -->
  <ellipse cx="155" cy="225" rx="80" ry="10" fill="#2f855a" opacity="0.2"/>
  
  <!-- Main storage box body -->
  <rect x="70" y="130" width="160" height="90" rx="8" fill="url(#boxGradient)" stroke="#2f855a" stroke-width="1"/>
  
  <!-- Box front panel -->
  <rect x="80" y="140" width="140" height="70" rx="5" fill="#48bb78" stroke="#2f855a" stroke-width="1" opacity="0.8"/>
  
  <!-- Lid -->
  <rect x="75" y="120" width="150" height="20" rx="6" fill="url(#lidGradient)" stroke="#48bb78" stroke-width="1"/>
  
  <!-- Handles -->
  <rect x="130" y="115" width="40" height="8" rx="4" fill="url(#handleGradient)" stroke="#2d3748" stroke-width="1"/>
  <ellipse cx="140" cy="119" rx="3" ry="2" fill="#1a202c"/>
  <ellipse cx="160" cy="119" rx="3" ry="2" fill="#1a202c"/>
  
  <!-- Fabric texture pattern -->
  <g opacity="0.6">
    <path d="M85 150 L215 150" stroke="#2f855a" stroke-width="0.5" stroke-dasharray="3,2"/>
    <path d="M85 160 L215 160" stroke="#2f855a" stroke-width="0.5" stroke-dasharray="3,2"/>
    <path d="M85 170 L215 170" stroke="#2f855a" stroke-width="0.5" stroke-dasharray="3,2"/>
    <path d="M85 180 L215 180" stroke="#2f855a" stroke-width="0.5" stroke-dasharray="3,2"/>
    <path d="M85 190 L215 190" stroke="#2f855a" stroke-width="0.5" stroke-dasharray="3,2"/>
    <path d="M85 200 L215 200" stroke="#2f855a" stroke-width="0.5" stroke-dasharray="3,2"/>
  </g>
  
  <!-- Vertical stitching -->
  <path d="M100 140 L100 210" stroke="#2f855a" stroke-width="1" stroke-dasharray="2,3" opacity="0.7"/>
  <path d="M150 140 L150 210" stroke="#2f855a" stroke-width="1" stroke-dasharray="2,3" opacity="0.7"/>
  <path d="M200 140 L200 210" stroke="#2f855a" stroke-width="1" stroke-dasharray="2,3" opacity="0.7"/>
  
  <!-- Reinforcement corners -->
  <circle cx="85" cy="145" r="3" fill="#2f855a" stroke="#1a365d" stroke-width="1"/>
  <circle cx="215" cy="145" r="3" fill="#2f855a" stroke="#1a365d" stroke-width="1"/>
  <circle cx="85" cy="205" r="3" fill="#2f855a" stroke="#1a365d" stroke-width="1"/>
  <circle cx="215" cy="205" r="3" fill="#2f855a" stroke="#1a365d" stroke-width="1"/>
  
  <!-- Label tag -->
  <rect x="180" y="155" width="25" height="12" rx="2" fill="#ffffff" stroke="#2f855a" stroke-width="1"/>
  <text x="192" y="163" font-family="Arial, sans-serif" font-size="8" fill="#2f855a" text-anchor="middle">3SET</text>
  
  <!-- Folding lines -->
  <path d="M75 135 L230 135" stroke="#38a169" stroke-width="1" opacity="0.5"/>
  <path d="M75 215 L230 215" stroke="#38a169" stroke-width="1" opacity="0.5"/>
  
  <!-- Side panels indication -->
  <path d="M75 130 L80 125 L80 135" fill="#38a169" opacity="0.6"/>
  <path d="M230 130 L225 125 L225 135" fill="#38a169" opacity="0.6"/>
  
  <!-- Subtle highlight -->
  <path d="M80 125 Q150 130, 220 125" stroke="#ffffff" stroke-width="1" opacity="0.4"/>
  
  <!-- Label -->
  <text x="150" y="270" font-family="Arial, sans-serif" font-size="11" fill="#2f855a" text-anchor="middle" font-weight="bold">Storage Box Set</text>
</svg>